# xmcd CD database file
#
# Track frame offsets:
#	150
#	22871
#	43679
#	64774
#	81312
#	103113
#	117495
#	139739
#	155643
#	173870
#	184922
#	197165
#
# Disc length: 2922 seconds
#
# Revision: 3
# Processed by: cddbd v1.4PL0 Copyright (c) Steve Scherf et al.
# Submitted via: CDex 1.50beta9
#
DISCID=a80b680c
DTITLE=Rolf Wikström - Allting förändras
DYEAR=2001
DGENRE=Blues
TTITLE0=Rolf Wikström - Allting förändras
TTITLE1=Rolf Wikström - Sofias sång
TTITLE2=Rolf Wikström - Helgdagskväll i timmerkojan
TTITLE3=Rolf Wikström - Haderian hadera
TTITLE4=Rolf Wikström - Vad fel det blev
TTITLE5=Rolf Wikström - Jag gör allting för dej
TTITLE6=Rolf Wikström - Till min syster
TTITLE7=Rolf Wikström - Trötta ögon
TTITLE8=Rolf Wikström - Min älskling
TTITLE9=Rolf Wikström - Sommaren är slut nu
TTITLE10=Rolf Wikström - Om du går neråt staden
TTITLE11=Rolf Wikström - Allför många gånger
EXTD=YEAR: 2001
EXTT0=
EXTT1=
EXTT2=
EXTT3=
EXTT4=
EXTT5=
EXTT6=
EXTT7=
EXTT8=
EXTT9=
EXTT10=
EXTT11=
PLAYORDER=
